<svg xmlns="http://www.w3.org/2000/svg" viewBox="0 0 24 24" width="24" height="24">
  <g fill="#ffffff">
    <circle cx="12" cy="12" r="6.5"/>
    <rect x="10.4" y="1.2" width="3.2" height="5" rx="1"/>
    <rect x="10.4" y="1.2" width="3.2" height="5" rx="1" transform="rotate(45 12 12)"/>
    <rect x="10.4" y="1.2" width="3.2" height="5" rx="1" transform="rotate(90 12 12)"/>
    <rect x="10.4" y="1.2" width="3.2" height="5" rx="1" transform="rotate(135 12 12)"/>
    <rect x="10.4" y="1.2" width="3.2" height="5" rx="1" transform="rotate(180 12 12)"/>
    <rect x="10.4" y="1.2" width="3.2" height="5" rx="1" transform="rotate(225 12 12)"/>
    <rect x="10.4" y="1.2" width="3.2" height="5" rx="1" transform="rotate(270 12 12)"/>
    <rect x="10.4" y="1.2" width="3.2" height="5" rx="1" transform="rotate(315 12 12)"/>
  </g>
  <circle cx="12" cy="12" r="2.6" fill="#006A4E"/>
</svg>
